<?xml version="1.0" standalone="no"?><!DOCTYPE svg PUBLIC "-//W3C//DTD SVG 1.1//EN" "http://www.w3.org/Graphics/SVG/1.1/DTD/svg11.dtd"><svg t="1584760317653" class="icon" viewBox="0 0 1097 1024" version="1.1" xmlns="http://www.w3.org/2000/svg" p-id="6035" xmlns:xlink="http://www.w3.org/1999/xlink" width="137.125" height="128"><defs><style type="text/css"></style></defs><path d="M181.467429 628.443429c6.802286-7.753143 34.121143-36.059429 69.339428-36.059429 37.522286 0 64.804571 26.843429 69.632 31.926857l111.104 112.786286a34.011429 34.011429 0 0 0 16.713143 9.106286 16.457143 16.457143 0 0 0 10.24-5.485715l182.491429-272.457143c4.498286-6.875429 36.754286-53.650286 89.709714-53.650285 50.834286 0 81.554286 38.4 87.332571 46.336l278.125715 351.158857V175.908571A102.875429 102.875429 0 0 0 993.499429 73.142857H102.619429A102.765714 102.765714 0 0 0 0 175.908571v639.049143l181.467429-186.550857z m191.634285-351.158858a104.228571 104.228571 0 1 1 0 208.493715 104.228571 104.228571 0 0 1 0-208.457143z" p-id="6036"></path><path d="M767.780571 498.358857v-0.365714c-1.462857-1.901714-16.457143-20.662857-36.644571-20.662857-16.457143 0-32.914286 18.432-37.12 25.014857l-0.329143 0.512-184.173714 274.724571-0.438857 0.585143c-2.377143 3.181714-23.990857 30.939429-60.342857 30.939429-32.109714 0-56.539429-22.857143-61.147429-27.428572l-112.64-113.993143c-3.291429-3.364571-14.153143-12.251429-24.027429-12.251428-5.485714 0-17.444571 8.996571-22.454857 14.884571l-0.658285 0.731429-0.731429 0.731428-220.379429 226.450286a102.838857 102.838857 0 0 0 95.926858 65.828572h890.88a102.802286 102.802286 0 0 0 94.281142-61.769143l-320-403.931429z" p-id="6037"></path></svg>